<?xml version="1.0" standalone="no"?>
<!DOCTYPE svg PUBLIC "-//W3C//DTD SVG 20010904//EN"
 "http://www.w3.org/TR/2001/REC-SVG-20010904/DTD/svg10.dtd">
<svg version="1.0" xmlns="http://www.w3.org/2000/svg"
 width="1271.000000pt" height="525.000000pt" viewBox="0 0 1271.000000 525.000000"
 preserveAspectRatio="xMidYMid meet">

<g transform="translate(0.000000,525.000000) scale(0.100000,-0.100000)"
fill="#000000" stroke="none">
<path d="M1505 4421 c-26 -11 -41 -45 -180 -411 -64 -168 -122 -321 -130 -340
-8 -19 -73 -190 -145 -380 -72 -190 -142 -372 -155 -405 -12 -33 -48 -127 -80
-210 -31 -82 -67 -177 -80 -210 -12 -33 -35 -91 -49 -130 -15 -38 -32 -81 -37
-95 -6 -14 -33 -83 -60 -155 -26 -71 -62 -166 -79 -210 -17 -44 -40 -102 -50
-130 -10 -27 -33 -86 -50 -130 -78 -200 -86 -239 -49 -250 35 -11 342 -14 381
-4 49 13 43 0 190 394 36 95 67 177 101 265 69 179 80 209 98 260 11 30 26 69
33 85 8 17 19 48 26 70 7 22 16 45 20 50 4 6 17 37 28 70 11 33 35 96 52 140
17 44 40 105 51 135 10 30 23 64 29 75 5 11 31 76 56 145 26 69 60 159 76 200
16 41 34 89 40 105 6 17 33 89 60 160 78 203 105 275 133 350 15 39 37 97 50
130 38 95 72 188 80 215 4 14 11 30 15 35 14 19 40 108 40 136 0 18 -7 32 -19
39 -23 12 -366 13 -396 1z"/>
<path d="M7525 3138 c-3 -7 -6 -190 -7 -407 l-3 -394 -32 27 c-17 14 -62 41
-100 59 -67 31 -71 32 -208 32 l-140 0 -80 -39 c-380 -185 -409 -762 -50 -991
168 -108 417 -95 563 28 24 21 48 37 52 37 5 0 10 -24 12 -52 l3 -53 173 -3
172 -2 0 885 0 885 -175 0 c-131 0 -177 -3 -180 -12z m-151 -999 c198 -73 212
-367 23 -458 -31 -15 -63 -21 -113 -21 -123 0 -207 58 -240 166 -18 62 -18 96
3 162 44 137 187 204 327 151z"/>
<path d="M11825 3121 c-92 -43 -139 -121 -133 -217 7 -112 84 -195 189 -202
84 -6 120 3 169 45 54 47 79 102 80 173 0 154 -168 265 -305 201z"/>
<path d="M1858 2633 l-3 -198 -78 -3 -78 -3 3 -132 3 -132 75 -5 75 -5 6 -265
c5 -243 7 -270 28 -327 31 -86 95 -155 169 -184 109 -43 336 -27 400 28 l21
18 -43 135 c-31 98 -47 134 -57 131 -8 -2 -30 -9 -51 -14 -29 -9 -41 -7 -62 7
-15 9 -31 28 -36 42 -6 14 -10 117 -10 229 l0 204 108 3 107 3 3 132 3 132
-108 3 -108 3 -5 195 -5 195 -177 3 -178 2 -2 -197z"/>
<path d="M10563 2471 c-176 -51 -332 -222 -372 -409 -16 -75 -14 -247 4 -314
32 -124 110 -241 213 -317 176 -132 466 -125 620 14 47 42 67 39 58 -10 -13
-65 -14 -65 190 -65 l184 0 -2 543 -3 542 -185 0 -185 0 -3 -42 c-3 -45 -19
-56 -42 -28 -22 27 -114 73 -176 89 -82 21 -222 20 -301 -3z m382 -325 c62
-29 97 -66 124 -129 40 -94 19 -219 -49 -287 -124 -125 -340 -98 -416 52 -70
139 -21 303 110 364 70 33 162 33 231 0z"/>
<path d="M2905 2447 c-81 -27 -151 -71 -211 -132 -74 -75 -108 -135 -140 -244
-84 -291 67 -611 328 -692 171 -54 356 -24 465 75 22 20 43 36 47 36 3 0 6
-19 6 -43 0 -24 5 -48 12 -55 8 -8 63 -12 180 -12 l168 0 0 525 0 525 -179 0
-180 0 -3 -45 -3 -46 -35 27 c-19 14 -64 40 -100 57 -60 28 -75 31 -190 34
-85 2 -138 -1 -165 -10z m372 -316 c91 -46 142 -146 130 -256 -13 -130 -108
-217 -237 -217 -81 0 -138 20 -186 67 -97 93 -97 263 1 360 74 75 198 94 292
46z"/>
<path d="M5726 2440 c-116 -31 -193 -76 -282 -165 -67 -67 -86 -94 -114 -160
-34 -78 -35 -84 -35 -210 1 -121 3 -135 30 -200 89 -214 272 -332 545 -350
226 -15 411 52 544 196 30 32 68 87 85 122 76 159 63 373 -30 519 -72 112
-226 217 -370 252 -92 22 -282 21 -373 -4z m268 -294 c210 -64 240 -360 45
-459 -133 -68 -293 -16 -349 115 -18 42 -21 65 -18 118 8 109 60 183 154 220
59 23 105 25 168 6z"/>
<path d="M8490 2437 c-221 -66 -384 -230 -419 -422 -34 -182 16 -359 136 -478
112 -112 223 -161 403 -178 237 -24 422 35 561 176 104 106 149 218 149 369 0
160 -43 261 -159 377 -129 129 -262 179 -476 178 -94 0 -136 -5 -195 -22z
m293 -297 c97 -36 157 -126 157 -235 0 -65 -25 -132 -63 -174 -38 -41 -115
-71 -183 -71 -106 0 -173 35 -221 118 -24 41 -28 58 -28 127 0 69 4 86 28 127
64 110 189 153 310 108z"/>
<path d="M11720 1916 l0 -545 23 -3 c12 -2 95 -2 185 0 l162 3 0 544 0 545
-185 0 -185 0 0 -544z"/>
<path d="M3970 2424 c0 -5 127 -173 268 -354 85 -110 104 -141 94 -153 -16
-21 -184 -227 -305 -375 -65 -78 -115 -147 -112 -152 4 -6 90 -10 210 -10
l204 0 112 145 c61 80 117 145 123 145 6 0 49 -51 96 -112 47 -62 98 -127 114
-145 l28 -33 203 0 c112 0 206 4 209 8 3 5 -30 51 -72 103 -244 295 -352 431
-352 440 0 6 28 48 63 93 35 44 94 122 132 171 38 50 90 117 115 150 25 33 50
66 54 73 6 9 -37 12 -201 12 l-208 0 -85 -115 c-46 -63 -90 -115 -96 -115 -7
0 -40 37 -73 83 -34 45 -73 97 -87 115 l-25 32 -204 0 c-113 0 -205 -3 -205
-6z"/>
<path d="M9681 1811 c-96 -25 -171 -127 -171 -234 0 -138 98 -238 234 -239 98
0 164 37 211 116 90 154 -12 349 -189 361 -28 2 -66 0 -85 -4z"/>
</g>
</svg>
